<?xml version="1.0" encoding="UTF-8"?>
<svg xmlns="http://www.w3.org/2000/svg" viewBox="0 0 512 512" width="512" height="512"><g id="filled_outline" data-name="filled outline"><path d="M280,280l5.9,35.426a26,26,0,0,0,13.32,18.618l22.338,12.028A133.937,133.937,0,0,1,392,464H120a133.937,133.937,0,0,1,70.438-117.928l22.338-12.028a26,26,0,0,0,13.32-18.618L232,280Z" style="fill:#fdc9a6"/><path d="M330.74,456.48,326.98,464H184l-3.76-7.52a49.891,49.891,0,0,1,1.84-47.95,49.885,49.885,0,0,0,6.14-35.43l-4.64-23.07q3.36-2.07,6.86-3.96l22.34-12.03a24.154,24.154,0,0,0,2.91-1.83L221,384a99.322,99.322,0,0,1,28.23,39.06L256,440l6.77-16.94A99.289,99.289,0,0,1,291,384l5.38-51.74a25.08,25.08,0,0,0,2.84,1.78l22.34,12.03c2,1.08,3.97,2.2,5.89,3.37l-.47,2.56-4.22,21.1a49.858,49.858,0,0,0,6.13,35.43A49.844,49.844,0,0,1,330.74,456.48Z" style="fill:#faa6b2"/><path d="M256,304h0a64,64,0,0,1-51.2-25.6h0A144,144,0,0,1,176,192V160H336v32a144,144,0,0,1-28.8,86.4h0A64,64,0,0,1,256,304Z" style="fill:#fdc9a6"/><path d="M256,64h0a80,80,0,0,1,80,80v16a0,0,0,0,1,0,0H176a0,0,0,0,1,0,0V144A80,80,0,0,1,256,64Z" style="fill:#faa6b2"/><path d="M216,160l-21.079,42.157A103.453,103.453,0,0,0,184,248.4h0a18.336,18.336,0,0,0,5.371,12.97h0a18.338,18.338,0,0,1,2.291,23.137l-.881,1.321a18.336,18.336,0,0,0,0,20.342l3.316,4.975a18.337,18.337,0,0,1,1.144,18.372L184,352H135.218a8.144,8.144,0,0,1-6.776-12.662h0a19.282,19.282,0,0,0-.606-22.247l-5.823-7.781a19.23,19.23,0,0,1,1.8-25.121l.277-.277a18.915,18.915,0,0,0,1.429-25.165,29.83,29.83,0,0,1-6.224-16.822,37.03,37.03,0,0,1,1.166-11.638l.052-.2a85.75,85.75,0,0,1,33.246-48.5C168.463,171.081,184,160,184,160Z" style="fill:#a3612d"/><path d="M297.894,160l19.851,52.936a37.943,37.943,0,0,1,1.283,22.528l-2.454,9.816a37.951,37.951,0,0,0,.815,21.2l.5,1.517a37.94,37.94,0,0,1,0,24h0a37.953,37.953,0,0,0,0,24l12,36h36.5a25.589,25.589,0,0,0,24.276-33.681l-1.722-5.167a28.944,28.944,0,0,1,0-18.3l1.159-3.476a28.939,28.939,0,0,0-1.571-22.094l-5.278-10.556a28.943,28.943,0,0,1-1.57-22.094h0a28.939,28.939,0,0,0-2.639-24.042h0A170.187,170.187,0,0,0,335.225,164l-5.331-4Z" style="fill:#a3612d"/><circle cx="224" cy="200" r="9"/><circle cx="287" cy="199" r="9"/><path d="M252.944,240H256a8,8,0,0,0,0-16h-3.055l2.211-4.423a8,8,0,0,0-14.312-7.154l-2.21,4.422A16,16,0,0,0,252.944,240Z"/><path d="M246,248a8,8,0,0,0,0,16h6.687a35.082,35.082,0,0,0,24.97-10.343,8,8,0,0,0-11.314-11.314A19.187,19.187,0,0,1,252.687,248Z"/><path d="M393.64,346.051a33.23,33.23,0,0,0,4.616-30.262l-1.722-5.167a21.077,21.077,0,0,1,0-13.244l1.159-3.476a36.7,36.7,0,0,0-2-28.2l-5.277-10.555a20.805,20.805,0,0,1-1.137-15.987,36.9,36.9,0,0,0-3.368-30.688,177.246,177.246,0,0,0-41.939-47.821c.017-.215.033-.43.033-.649V144a88,88,0,0,0-176,0v16a7.969,7.969,0,0,0,.143,1.484l-19.034,13.582a93.868,93.868,0,0,0-36.343,53.016l-.057.217a45,45,0,0,0-1.4,14.153,37.852,37.852,0,0,0,7.952,21.284,10.9,10.9,0,0,1-.832,14.519l-.277.277a27.37,27.37,0,0,0-2.546,35.571l5.823,7.78a11.3,11.3,0,0,1,.354,13.017A16.145,16.145,0,0,0,135.218,360h22.128A141.729,141.729,0,0,0,112,464a8,8,0,0,0,8,8H392a8,8,0,0,0,8-8,141.729,141.729,0,0,0-45.346-104h11.737A33.231,33.231,0,0,0,393.64,346.051ZM372.186,216.7a20.92,20.92,0,0,1,1.91,17.4,36.7,36.7,0,0,0,2,28.2l5.278,10.555a20.805,20.805,0,0,1,1.136,15.987l-1.159,3.476a37.188,37.188,0,0,0,0,23.364l1.723,5.167A17.59,17.59,0,0,1,366.391,344h-30.73l-10.177-30.53a30.129,30.129,0,0,1,0-18.94,46.235,46.235,0,0,0,0-29.061l-.5-1.515a29.908,29.908,0,0,1-.643-16.734l2.455-9.816a45.755,45.755,0,0,0-1.554-27.277L309.438,168h17.79l3.2,2.4A161.409,161.409,0,0,1,372.186,216.7Zm-48.6,236.2-1.549,3.1H188.944l-1.548-3.1a41.665,41.665,0,0,1,1.546-40.258,57.738,57.738,0,0,0,7.122-41.117l-3.5-17.483c.555-.309,1.1-.628,1.662-.93l14.686-7.908,4.127,39.621a8,8,0,0,0,2.8,5.29,91.591,91.591,0,0,1,25.95,35.915l6.775,16.937a8,8,0,0,0,14.856,0l6.775-16.937a91.591,91.591,0,0,1,25.95-35.915,8,8,0,0,0,2.8-5.29l4.127-39.621,14.686,7.908c.25.135.493.279.742.415l-3.6,18a57.738,57.738,0,0,0,7.122,41.117A41.665,41.665,0,0,1,323.581,452.9Zm-122.827-146.2-3.317-4.974a10.307,10.307,0,0,1,0-11.466l.881-1.322a26.13,26.13,0,0,0,1.907-3.428A72.023,72.023,0,0,0,220.156,302.4l-1.951,11.712A18.12,18.12,0,0,1,208.983,327l-5.215,2.808A26.405,26.405,0,0,0,200.754,306.708ZM292.35,168l17.9,47.745a29.807,29.807,0,0,1,1.013,17.778l-2.454,9.817a45.862,45.862,0,0,0-.636,19.34c-2.28,3.747-4.75,7.418-7.377,10.92a56,56,0,0,1-89.6,0,135.909,135.909,0,0,1-18.738-34.409,95.971,95.971,0,0,1,9.615-33.456L220.944,168ZM278.013,316.741A34.209,34.209,0,0,0,288,335.631l-4.625,44.4A107.719,107.719,0,0,0,256,418.5a107.719,107.719,0,0,0-27.37-38.464l-4.625-44.4a34.209,34.209,0,0,0,9.982-18.89l1.3-7.816a71.285,71.285,0,0,0,41.422,0Zm25,10.259a18.12,18.12,0,0,1-9.222-12.889L291.844,302.4a72.092,72.092,0,0,0,19.306-16.12,29.39,29.39,0,0,1-.845,3.191,46.239,46.239,0,0,0,0,29.06l5.036,15.106ZM184,144a72,72,0,0,1,144,0v8H184ZM135.15,344a.208.208,0,0,1-.052-.225,27.328,27.328,0,0,0-.857-31.478l-5.823-7.78a11.288,11.288,0,0,1,1.05-14.671l.277-.277a26.89,26.89,0,0,0,2.025-35.812,21.662,21.662,0,0,1-4.494-12.36,29.021,29.021,0,0,1,.928-9.108l.057-.22a77.855,77.855,0,0,1,30.144-43.98c11.468-8.185,23.44-16.725,28.156-20.089h16.5l-15.29,30.58A112.015,112.015,0,0,0,176,248.4a26.16,26.16,0,0,0,7.714,18.627,10.365,10.365,0,0,1,1.292,13.042l-.881,1.322a26.265,26.265,0,0,0,0,29.218l3.316,4.974a10.358,10.358,0,0,1,.645,10.357l-8.625,17.25c-.442.272-.891.534-1.329.81Zm42.98,19.44,2.245,11.227a41.774,41.774,0,0,1-5.153,29.747A57.554,57.554,0,0,0,171.252,456h-43A125.738,125.738,0,0,1,178.13,363.44ZM383.748,456H339.725a57.554,57.554,0,0,0-3.971-51.586,41.777,41.777,0,0,1-5.152-29.747l2.377-11.888A125.736,125.736,0,0,1,383.748,456Z"/></g></svg>
